<svg id="Capa_1" data-name="Capa 1" xmlns="http://www.w3.org/2000/svg" viewBox="0 0 1782.06 577.82"><defs><style>.cls-1{fill:#9cb8dc;}.cls-2{fill:#4081c3;isolation:isolate;opacity:0.7;}.cls-3{fill:#c2d2e8;}.cls-4{fill:#5e83b9;}.cls-5,.cls-8,.cls-9{fill:#3b4e7b;}.cls-6{fill:none;stroke:#fff;stroke-width:11px;}.cls-6,.cls-8{stroke-miterlimit:10;}.cls-7{fill:#fff;}.cls-8{stroke:#3b4e7b;stroke-width:8px;}.cls-9{font-size:264.88px;font-family:AlternateGothicNo2BT-Regular, AlternateGothic2 BT;}</style></defs><path id="path9362" class="cls-1" d="M-1834.83,23.89l231,154V447.42l-231-154Z" transform="translate(1835.38 130.4)"/><path id="path9364" class="cls-2" d="M-1565.33-130.1l231,154-269.5,154-231-154Z" transform="translate(1835.38 130.4)"/><path id="path9366" class="cls-3" d="M-1334.32,23.89V293.38l-269.5,154V177.88Z" transform="translate(1835.38 130.4)"/><path id="path2467" class="cls-4" d="M-1565.39-129.87l231,154V293.65l-231-154Z" transform="translate(1835.38 130.4)"/><path id="path2469" class="cls-5" d="M-1565.88-130.4V139.09l-269.5,154V23.59Z" transform="translate(1835.38 130.4)"/><polygon class="cls-6" points="269.07 26.53 25.34 165.8 25.34 409.56 232.95 549.1 476.26 411.26 476.26 167.53 269.07 26.53"/><circle class="cls-7" cx="469.78" cy="169.94" r="20.64"/><circle class="cls-7" cx="269.98" cy="36.9" r="20.64"/><circle class="cls-7" cx="25.92" cy="169.94" r="20.64"/><circle class="cls-7" cx="25.34" cy="406.84" r="20.64"/><circle class="cls-7" cx="231.56" cy="546.1" r="20.64"/><circle class="cls-7" cx="476.26" cy="406.84" r="20.64"/><path class="cls-7" d="M-1552.53,276.16c-1.23,14.81,3,19.62,17.28,19.87,4.43.08,8.34,1,8.46,6,.13,5.4-3.7,6.66-8.58,6.64q-49.31-.18-98.59-.07c-4.73,0-9.48-.13-9.34-6.49.14-5.9,4.71-5.87,9.12-6,13-.35,18.06-6.24,16.72-20-17.16,0-34.41,0-51.66,0-7.41,0-14.82.12-22.23.06-13.41-.1-17.22-3.92-17.22-17.16q0-37.81,0-75.62c0-15.32,0-30.64,0-46,0-12.64,4.12-16.81,17-16.89,18.75-.11,37.51,0,57,0-2.71-7.62-5-14.75-7.9-21.57-.6-1.4-3.73-1.83-5.78-2.45-6.56-2-13.49-3.12-19.66-5.94-8.62-3.93-9.49-12.49-1.46-17.21,8.37-4.93,17.93-7.79,26.74-12a14,14,0,0,0,6.5-6.45c3.1-7.49,5-15.45,8.06-23a57.7,57.7,0,0,1,7.59-13.45c7.7-10,18-10.78,27.57-2.52,7.91,6.82,7.91,6.82,15.75,0C-1567.28,7.27-1555,8-1548,19.61c6.21,10.38,10.19,22.24,14.09,33.81,1.73,5.12,4,7.35,9.05,8.89a160.35,160.35,0,0,1,22.45,9.15c4.45,2.15,9.54,5.79,7.43,11.25-1.52,3.93-5.92,7.56-9.92,9.5-5,2.41-10.8,3.21-16.36,4.2-4.26.76-7,2.11-8.2,6.88-1.42,5.63-4.08,10.94-6.52,17.21,17.52,0,34.28,0,51,0,21.08,0,22.9,1.6,22.93,22.56q.08,58.56-.07,117.12c0,12.41-3.46,15.83-15.81,15.89-22.49.11-45,.08-67.46.1Zm-2.12-13h79.77V134h-219.95V263.22h79.13c1.59-17.06,3-33.73,4.79-50.37a11.3,11.3,0,0,1,3.36-6.76c1.17-1,5.13-1,5.85,0,1.69,2.31,3.2,5.57,3,8.31-2.11,27.16-4.58,54.3-6.94,81.36h41.22c-1.61-16.78-3.21-33.16-4.75-49.55-1-10.82-1.87-21.65-2.9-32.46-.44-4.64,1.35-8.78,5.87-8.34,2.64.26,5,4.65,7.21,7.42.62.78.13,2.4.24,3.63C-1557.41,231.89-1556,247.36-1554.65,263.2Zm41.29-181,.49-2.61c-7.11-2.33-14.13-5-21.38-6.84-5.58-1.39-8.64-3.68-10.24-9.76a208.79,208.79,0,0,0-11.21-32c-4.16-9.29-7.91-9.52-15.61-3-9.34,7.94-17.7,8.19-26.58.81s-11.27-7.26-16,3.36c-4.56,10.32-8.05,21.15-11.4,31.94-1.53,5-4.31,7.07-9.08,8.3-7.49,1.93-14.8,4.58-22.18,6.92l.48,2.68A414.85,414.85,0,0,0-1513.36,82.18ZM-1547.55,104c-7.11,1.73-13.23,3-19.23,4.79-1.66.48-4.32,2.55-4.14,3.32a8.92,8.92,0,0,0,3.64,5C-1557.42,123.35-1549.82,118.9-1547.55,104Zm-74.87-.29c.21,7.62,1.61,13.52,8.18,15.35,6.33,1.77,12-.51,16.54-8.39Z" transform="translate(1835.38 130.4)"/><path class="cls-5" d="M-1554.65,263.2c-1.39-15.84-2.76-31.31-4.11-46.78-.11-1.23.38-2.85-.24-3.63-2.2-2.77-4.57-7.16-7.21-7.42-4.52-.44-6.31,3.7-5.87,8.34,1,10.81,1.89,21.64,2.9,32.46,1.54,16.39,3.14,32.77,4.75,49.55h-41.22c2.36-27.06,4.83-54.2,6.94-81.36.21-2.74-1.3-6-3-8.31-.72-1-4.68-1-5.85,0a11.3,11.3,0,0,0-3.36,6.76c-1.76,16.64-3.2,33.31-4.79,50.37h-79.13V134h219.95V263.2Z" transform="translate(1835.38 130.4)"/><path class="cls-8" d="M-1608.82,209.24c-.48-1.8.53-3.16,2-4.72a40.93,40.93,0,0,0,5.39-7.57c6-10.45,19.61-11.26,26.22-1.47a7.59,7.59,0,0,1,1,2.07,19.8,19.8,0,0,0,6.4,9.78,2.13,2.13,0,0,1,.66.68c2,4.57-1.7,10.24-6.69,10.2a13.12,13.12,0,0,1-4.82-1c-6.9-2.91-13.58-3.15-20.38.53a6.83,6.83,0,0,1-9.77-5.81C-1608.87,211.14-1608.82,210.36-1608.82,209.24Z" transform="translate(1835.38 130.4)"/><path class="cls-8" d="M-1556.5,190a11.08,11.08,0,0,1-7.31,10c-3.55,1.13-6.59-.68-7.24-4.31-.84-4.7,2.49-10.27,7-11.73C-1559.74,182.63-1556.46,185.24-1556.5,190Z" transform="translate(1835.38 130.4)"/><path class="cls-8" d="M-1604.86,194.32c0,4.83-3.77,7.3-8.22,5.42a11.61,11.61,0,0,1-6.62-10c0-4.73,3.94-7.29,8.31-5.43A11.22,11.22,0,0,1-1604.86,194.32Z" transform="translate(1835.38 130.4)"/><ellipse class="cls-8" cx="-1597.5" cy="175.69" rx="8.3" ry="12.12" transform="translate(1799.41 -74.02) rotate(-7.4)"/><ellipse class="cls-8" cx="-1576.68" cy="175.69" rx="12.12" ry="8.3" transform="translate(468.14 -1266.46) rotate(-76.06)"/><path class="cls-7" d="M-1608.49,208.86c-.49-1.8.52-3.16,2-4.72a41.8,41.8,0,0,0,5.4-7.57c6-10.45,19.61-11.26,26.21-1.47a7.92,7.92,0,0,1,1,2.07,19.72,19.72,0,0,0,6.39,9.78,2.17,2.17,0,0,1,.67.68c1.94,4.57-1.71,10.24-6.7,10.2a13.07,13.07,0,0,1-4.81-1c-6.91-2.91-13.59-3.15-20.39.53a6.83,6.83,0,0,1-9.77-5.81C-1608.55,210.76-1608.49,210-1608.49,208.86Z" transform="translate(1835.38 130.4)"/><path class="cls-7" d="M-1556.18,189.65a11.07,11.07,0,0,1-7.31,10c-3.55,1.13-6.59-.68-7.24-4.31-.83-4.7,2.49-10.27,7-11.73C-1559.42,182.25-1556.14,184.86-1556.18,189.65Z" transform="translate(1835.38 130.4)"/><path class="cls-7" d="M-1604.54,193.94c0,4.83-3.77,7.3-8.21,5.42a11.58,11.58,0,0,1-6.62-10c0-4.73,3.93-7.29,8.3-5.43A11.22,11.22,0,0,1-1604.54,193.94Z" transform="translate(1835.38 130.4)"/><ellipse class="cls-7" cx="-1597.18" cy="175.31" rx="8.3" ry="12.12" transform="translate(1799.46 -73.98) rotate(-7.4)"/><ellipse class="cls-7" cx="-1576.35" cy="175.31" rx="12.12" ry="8.3" transform="translate(468.75 -1266.44) rotate(-76.06)"/><text class="cls-9" transform="translate(575.87 366.05)">Hunter Phisher</text></svg>