<svg id="Capa_1" data-name="Capa 1" xmlns="http://www.w3.org/2000/svg" viewBox="0 0 501.05 577.82"><defs><style>.cls-1{fill:#9cb8dc;}.cls-2{fill:#4081c3;isolation:isolate;opacity:0.7;}.cls-3{fill:#c2d2e8;}.cls-4{fill:#5e83b9;}.cls-5,.cls-8{fill:#3b4e7b;}.cls-6{fill:none;stroke:#fff;stroke-width:11px;}.cls-6,.cls-8{stroke-miterlimit:10;}.cls-7{fill:#fff;}.cls-8{stroke:#3b4e7b;stroke-width:8px;}</style></defs><path id="path9362" class="cls-1" d="M47.65,383l231,154V806.54l-231-154Z" transform="translate(-47.11 -228.72)"/><path id="path9364" class="cls-2" d="M317.16,229l231,154L278.67,537l-231-154Z" transform="translate(-47.11 -228.72)"/><path id="path9366" class="cls-3" d="M548.17,383V652.5l-269.5,154V537Z" transform="translate(-47.11 -228.72)"/><path id="path2467" class="cls-4" d="M317.09,229.25l231,154V652.77l-231-154Z" transform="translate(-47.11 -228.72)"/><path id="path2469" class="cls-5" d="M316.61,228.72V498.21l-269.5,154V382.71Z" transform="translate(-47.11 -228.72)"/><polygon class="cls-6" points="269.07 26.53 25.34 165.8 25.34 409.56 232.95 549.1 476.26 411.26 476.26 167.53 269.07 26.53"/><circle class="cls-7" cx="469.78" cy="169.94" r="20.64"/><circle class="cls-7" cx="269.98" cy="36.9" r="20.64"/><circle class="cls-7" cx="25.92" cy="169.94" r="20.64"/><circle class="cls-7" cx="25.34" cy="406.84" r="20.64"/><circle class="cls-7" cx="231.56" cy="546.1" r="20.64"/><circle class="cls-7" cx="476.26" cy="406.84" r="20.64"/><path class="cls-7" d="M330,635.28c-1.23,14.81,3,19.62,17.29,19.87,4.43.08,8.34,1,8.46,6,.12,5.39-3.7,6.65-8.59,6.63q-49.29-.18-98.59-.07c-4.72,0-9.47-.13-9.33-6.49.13-5.9,4.71-5.87,9.11-6,13-.35,18.07-6.24,16.73-20H213.37c-7.41,0-14.82.12-22.24.06-13.4-.1-17.21-3.92-17.22-17.16q0-37.82,0-75.62c0-15.32,0-30.64,0-46,0-12.64,4.12-16.81,17-16.89,18.75-.11,37.51,0,57,0-2.71-7.62-5-14.75-7.9-21.57-.6-1.4-3.73-1.83-5.77-2.45-6.56-2-13.49-3.12-19.67-5.94-8.61-3.93-9.49-12.49-1.46-17.21,8.38-4.93,17.94-7.79,26.75-12.05a14.06,14.06,0,0,0,6.5-6.45c3.09-7.49,5-15.45,8-23A57.7,57.7,0,0,1,262,377.53c7.71-10,18-10.78,27.58-2.52,7.91,6.82,7.91,6.82,15.75,0,9.88-8.61,22.17-7.92,29.15,3.73,6.22,10.38,10.19,22.24,14.1,33.81,1.73,5.12,4,7.35,9,8.89a159.86,159.86,0,0,1,22.45,9.15c4.45,2.15,9.55,5.79,7.44,11.25-1.52,3.93-5.92,7.56-9.93,9.5-5,2.41-10.8,3.22-16.35,4.2-4.27.76-7,2.11-8.2,6.88-1.42,5.63-4.08,10.94-6.52,17.21,17.51,0,34.28,0,51,0,21.08-.05,22.89,1.61,22.92,22.56q.09,58.56-.06,117.12c0,12.41-3.47,15.83-15.82,15.89-22.48.11-45,.08-67.45.1Zm-2.11-13h79.77V493.07H187.66V622.34h79.13c1.58-17.06,3-33.73,4.79-50.37a11.29,11.29,0,0,1,3.35-6.76c1.17-1,5.13-1,5.86,0,1.68,2.31,3.2,5.57,3,8.31-2.11,27.17-4.58,54.3-6.94,81.36h41.21c-1.61-16.78-3.21-33.16-4.74-49.55-1-10.82-1.87-21.65-2.9-32.46-.44-4.64,1.35-8.78,5.86-8.34,2.65.26,5,4.65,7.21,7.42.62.78.13,2.4.24,3.63C325.07,591,326.44,606.48,327.84,622.32Zm41.28-181,.5-2.61c-7.12-2.33-14.13-5-21.38-6.84-5.58-1.39-8.64-3.68-10.25-9.76a208.75,208.75,0,0,0-11.2-32c-4.17-9.29-7.91-9.52-15.62-3-9.34,7.94-17.69,8.19-26.57.81s-11.27-7.26-16,3.36c-4.56,10.32-8.06,21.15-11.4,31.94-1.54,5-4.32,7.07-9.09,8.3-7.49,1.93-14.79,4.58-22.18,6.92l.48,2.68A414.85,414.85,0,0,0,369.12,441.3Zm-34.18,21.79c-7.11,1.73-13.23,3.05-19.24,4.79-1.65.48-4.32,2.55-4.13,3.32a8.88,8.88,0,0,0,3.64,5C325.06,482.47,332.67,478,334.94,463.09Zm-74.87-.29c.21,7.62,1.61,13.52,8.18,15.35,6.33,1.77,11.95-.51,16.54-8.39Z" transform="translate(-47.11 -228.72)"/><path class="cls-5" d="M327.84,622.32c-1.4-15.84-2.77-31.31-4.12-46.78-.11-1.23.38-2.85-.24-3.63-2.19-2.77-4.56-7.16-7.21-7.42-4.51-.44-6.3,3.7-5.86,8.34,1,10.81,1.89,21.64,2.9,32.46,1.53,16.39,3.13,32.77,4.74,49.55H276.84c2.36-27.06,4.83-54.19,6.94-81.36.21-2.74-1.31-6-3-8.31-.73-1-4.69-1-5.86,0a11.29,11.29,0,0,0-3.35,6.76c-1.77,16.64-3.21,33.31-4.79,50.37H187.66V493.07h220V622.32Z" transform="translate(-47.11 -228.72)"/><path class="cls-8" d="M273.67,568.36c-.48-1.8.52-3.16,2-4.72a41.89,41.89,0,0,0,5.39-7.57c6-10.45,19.61-11.26,26.21-1.47a7.92,7.92,0,0,1,1,2.07,19.74,19.74,0,0,0,6.4,9.78,2.24,2.24,0,0,1,.66.68c2,4.57-1.71,10.24-6.69,10.2a13.08,13.08,0,0,1-4.82-1c-6.9-2.91-13.59-3.15-20.38.53a6.83,6.83,0,0,1-9.77-5.81C273.62,570.26,273.67,569.48,273.67,568.36Z" transform="translate(-47.11 -228.72)"/><path class="cls-8" d="M326,549.15a11.07,11.07,0,0,1-7.31,10c-3.55,1.13-6.59-.68-7.23-4.31-.84-4.7,2.48-10.27,7-11.73C322.74,541.75,326,544.36,326,549.15Z" transform="translate(-47.11 -228.72)"/><path class="cls-8" d="M277.62,553.44c0,4.83-3.77,7.3-8.21,5.42a11.6,11.6,0,0,1-6.62-10c0-4.73,3.94-7.29,8.31-5.43A11.24,11.24,0,0,1,277.62,553.44Z" transform="translate(-47.11 -228.72)"/><ellipse class="cls-8" cx="284.98" cy="534.81" rx="8.3" ry="12.12" transform="translate(-113.66 -187.53) rotate(-7.4)"/><ellipse class="cls-8" cx="305.81" cy="534.81" rx="12.12" ry="8.3" transform="translate(-334.04 474.01) rotate(-76.06)"/><path class="cls-7" d="M274,568c-.48-1.8.53-3.16,2-4.72a41.4,41.4,0,0,0,5.39-7.57c6-10.45,19.61-11.26,26.22-1.47a7.89,7.89,0,0,1,1,2.07,19.74,19.74,0,0,0,6.4,9.78,2.13,2.13,0,0,1,.66.68C317.61,571.32,314,577,309,577a13.08,13.08,0,0,1-4.82-1c-6.9-2.91-13.58-3.15-20.38.53a6.83,6.83,0,0,1-9.77-5.81C273.94,569.88,274,569.1,274,568Z" transform="translate(-47.11 -228.72)"/><path class="cls-7" d="M326.31,548.77a11.08,11.08,0,0,1-7.32,10c-3.55,1.13-6.58-.68-7.23-4.31-.84-4.7,2.49-10.27,7-11.73C323.07,541.37,326.35,544,326.31,548.77Z" transform="translate(-47.11 -228.72)"/><path class="cls-7" d="M278,553.06c0,4.83-3.77,7.3-8.22,5.42a11.6,11.6,0,0,1-6.62-10c0-4.73,3.94-7.29,8.31-5.43A11.22,11.22,0,0,1,278,553.06Z" transform="translate(-47.11 -228.72)"/><ellipse class="cls-7" cx="285.3" cy="534.43" rx="8.3" ry="12.12" transform="translate(-113.61 -187.49) rotate(-7.4)"/><ellipse class="cls-7" cx="306.13" cy="534.43" rx="12.12" ry="8.3" transform="translate(-333.43 474.03) rotate(-76.06)"/></svg>